<svg xmlns="http://www.w3.org/2000/svg" viewBox="0 0 201.28 89.68"><defs><style>.cls-1{font-size:18px;font-family:RyuminPr6N-Light-83pv-RKSJ-H, A-OTF Ryumin Pr6N;letter-spacing:0em;}.cls-1,.cls-18{fill:#333;}.cls-2{letter-spacing:-0.03em;}.cls-3{letter-spacing:-0.11em;}.cls-4{letter-spacing:-0.17em;}.cls-5{letter-spacing:-0.22em;}.cls-6{letter-spacing:-0.07em;}.cls-7{font-size:22px;letter-spacing:0.05em;}.cls-8{letter-spacing:-0.07em;}.cls-9{letter-spacing:-0.19em;}.cls-10{letter-spacing:-0.25em;}.cls-11{letter-spacing:-0.13em;}.cls-12{letter-spacing:-0.2em;}.cls-13{letter-spacing:-0.22em;}.cls-14{letter-spacing:-0.2em;}.cls-15{letter-spacing:-0.01em;}.cls-16{letter-spacing:-0.38em;}.cls-17{fill:none;stroke:#333;stroke-miterlimit:10;}.cls-18,.cls-19{font-size:5px;font-family:UDShinGoPr6N-Light-83pv-RKSJ-H, A-OTF UD Shin Go Pr6N;}.cls-19{fill:red;}</style></defs><g id="レイヤー_2" data-name="レイヤー 2"><g id="Objects"><text class="cls-1" transform="translate(0 35.18)">今<tspan class="cls-2" x="18.07" y="0">だ</tspan><tspan class="cls-3" x="35.57" y="0">から</tspan><tspan class="cls-4" x="67.68" y="0">で</tspan><tspan class="cls-5" x="82.53" y="0">き</tspan><tspan class="cls-6" x="96.57" y="0">る</tspan><tspan class="cls-7"><tspan x="-9.37" y="25.13">「</tspan><tspan class="cls-8" x="13.73" y="25.13">新</tspan><tspan class="cls-9" x="34.19" y="25.13">ラ</tspan><tspan class="cls-10" x="52.05" y="25.13">イ</tspan><tspan class="cls-11" x="68.6" y="25.13">フ</tspan><tspan class="cls-12" x="87.76" y="25.13">ス</tspan><tspan class="cls-13" x="105.27" y="25.13">タ</tspan><tspan class="cls-14" x="122.43" y="25.13">イ</tspan><tspan class="cls-15" x="140.08" y="25.13">ル</tspan><tspan class="cls-16" x="161.83" y="25.13">」</tspan></tspan></text><line class="cls-17" x1="2.08" y1="72.8" x2="46.57" y2="72.8"/><path class="cls-17" d="M119.67,69.63a44.34,44.34,0,1,0-2.93-44.56"/><text class="cls-18" transform="matrix(0.5, -0.87, 0.87, 0.5, 127.47, 30.08)">~</text><text class="cls-19" transform="matrix(0.63, -0.77, 0.77, 0.63, 130.56, 25.11)">E</text><text class="cls-19" transform="translate(133.95 21.25) rotate(-42.25)">L</text><text class="cls-19" transform="matrix(0.85, -0.53, 0.53, 0.85, 137.36, 18.25)">M</text><text class="cls-18" transform="translate(143.33 14.72) rotate(-20.14)">が</text><text class="cls-18" transform="matrix(0.99, -0.14, 0.14, 0.99, 150.02, 12.51)">あ</text><text class="cls-18" transform="translate(156.97 11.76) rotate(4.17)">な</text><text class="cls-18" transform="translate(163.83 12.46) rotate(16.17)">た</text><text class="cls-18" transform="matrix(0.88, 0.47, -0.47, 0.88, 170.44, 14.59)">の</text><text class="cls-18" transform="matrix(0.76, 0.65, -0.65, 0.76, 176.53, 18.12)">生</text><text class="cls-18" transform="translate(181.74 22.84) rotate(52.61)">活</text><text class="cls-18" transform="translate(185.78 28.46) rotate(64.62)">を</text><text class="cls-18" transform="matrix(0.23, 0.97, -0.97, 0.23, 188.55, 34.76)">応</text><text class="cls-18" transform="translate(189.96 41.65) rotate(88.82)">援</text><text class="cls-18" transform="translate(189.95 48.14) rotate(99.99)">し</text><text class="cls-18" transform="translate(188.68 54.51) rotate(111.34)">ま</text><text class="cls-18" transform="matrix(-0.55, 0.84, -0.84, -0.55, 186.03, 60.78)">す</text><text class="cls-18" transform="translate(182.03 66.45) rotate(134.15)">~</text></g></g></svg>