<svg xmlns="http://www.w3.org/2000/svg" viewBox="0 0 226.77 147.82"><defs><style>.cls-1{fill:#fff459;}.cls-2{fill:#040000;}</style></defs><g id="レイヤー_2" data-name="レイヤー 2"><g id="文字"><polygon class="cls-1" points="30.53 99.54 203.84 81.24 203.84 99.97 30.53 99.54"/><path class="cls-2" d="M33.8,86.88c-2.06,0-2.74.05-2.89.05s-.23,0-.23-.26V85c0-.23,0-.26.23-.26s.83,0,2.89,0h3a13.82,13.82,0,0,0,.89-2.23,3.49,3.49,0,0,0,.17-1c.77.15,1.36.33,2,.5.24.07.28.16.28.33a.41.41,0,0,1-.18.35,1.33,1.33,0,0,0-.36.54c-.25.59-.44,1-.72,1.55,1.62,0,2.3,0,2.53,0s.26,0,.26.26v1.69c0,.24,0,.26-.26.26s-.84-.05-2.89-.05H37.51a7.94,7.94,0,0,0,0,1.29v.43h.8c2,0,2.67,0,2.81,0s.26,0,.26.26v1.67c0,.23,0,.25-.26.25s-.82,0-2.81,0H38.1a10.93,10.93,0,0,0,3,2.46,6.6,6.6,0,0,0-.83,1.51c-.09.23-.16.37-.28.37s-.26-.09-.49-.33a11.47,11.47,0,0,1-2.09-2.44c0,3.26.12,5.12.12,5.94,0,.24,0,.26-.28.26H35.4c-.23,0-.26,0-.26-.26,0-.77.07-2.49.1-5.42a18.5,18.5,0,0,1-3.06,3.8c-.23.21-.37.33-.49.33s-.26-.16-.38-.47a6.3,6.3,0,0,0-.91-1.57,14.38,14.38,0,0,0,4.15-4.18H34c-2,0-2.7,0-2.84,0s-.26,0-.26-.25V88.81c0-.24,0-.26.26-.26s.82,0,2.84,0h1.22v-.43c0-.54,0-.93,0-1.29Zm.4-5.63c-2,0-2.63,0-2.77,0s-.26,0-.26-.25V79.41c0-.23,0-.25.26-.25s.82,0,2.77,0h.92v-.63A7.1,7.1,0,0,0,35,77c.84,0,1.59,0,2.44.12.23,0,.38.09.38.21a.94.94,0,0,1-.15.4,1.69,1.69,0,0,0-.11.84v.61h.8c1.94,0,2.6,0,2.74,0s.28,0,.28.25V81c0,.23,0,.25-.28.25s-.8,0-2.74,0Zm-.35,3.33c-.3.1-.4.07-.47-.19a9.55,9.55,0,0,0-.66-2.06c-.14-.26-.11-.33.21-.4l1.2-.35c.28-.08.33,0,.42.16a10.1,10.1,0,0,1,.87,2.11c.07.24,0,.31-.23.38Zm10.94,2.19a30.12,30.12,0,0,1-.61,6.78,12.61,12.61,0,0,1-2,4.46c-.21.29-.33.45-.49.45s-.26-.12-.52-.33a5.47,5.47,0,0,0-1.52-.94,10.83,10.83,0,0,0,2.42-4.77,30.5,30.5,0,0,0,.47-6.76V83.1c0-1.38,0-2.63-.15-4a11.47,11.47,0,0,1,2.17.56A16.91,16.91,0,0,0,48.6,78a6.31,6.31,0,0,0,1.24-.87,9.83,9.83,0,0,1,1.53,1.67.7.7,0,0,1,.16.44c0,.14-.14.26-.35.29a2.41,2.41,0,0,0-.91.28,25.78,25.78,0,0,1-5.48,1.92v2.87h4c2.28,0,3,0,3.19,0s.26,0,.26.26v1.71c0,.24,0,.26-.26.26l-2.37,0V95c0,2.21,0,3.12,0,3.24s0,.28-.24.28H47.52c-.24,0-.26,0-.26-.28s.05-1,.05-3.24V86.77Z"/><path class="cls-2" d="M59.72,86.37c-1.17,0-2.35,0-3.52.09-.21,0-.31-.14-.36-.45a17.81,17.81,0,0,1-.25-2.37,41.65,41.65,0,0,0,4.32.19h8a2.63,2.63,0,0,0,1.25-.26.51.51,0,0,1,.3-.14.55.55,0,0,1,.35.17,13.46,13.46,0,0,1,1.58,1.45.71.71,0,0,1,.23.49.56.56,0,0,1-.26.45,2.67,2.67,0,0,0-.79,1.1C68.27,92.1,65.57,95,61,97.47a1,1,0,0,1-.47.17.8.8,0,0,1-.51-.28,6.74,6.74,0,0,0-2.19-1.22c4.35-2,8.18-5.27,9.87-9.8Zm1.57-5.05c-1,0-2.23,0-3.21.09-.24,0-.31-.14-.33-.52a20.36,20.36,0,0,1-.12-2.25,32.6,32.6,0,0,0,3.85.16h4.23c1.52,0,2.77-.07,3.68-.11.22,0,.29.11.29.37a14,14,0,0,1,0,1.83c0,.4-.07.5-.43.47-.77,0-1.88,0-3.31,0Z"/><path class="cls-2" d="M86.68,92.28c0,1.62,0,3,.07,4.89,0,.3-.09.4-.35.4a23,23,0,0,1-2.35,0c-.26,0-.35-.1-.33-.38,0-1.69.1-3.22.1-4.81V86.91a40.74,40.74,0,0,1-6.46,4.5.61.61,0,0,1-.35.1.66.66,0,0,1-.5-.24,8.49,8.49,0,0,0-2-1.38,40.05,40.05,0,0,0,12.4-9.72,6.71,6.71,0,0,0,1.48-2.42A20.53,20.53,0,0,1,91,79.39a.43.43,0,0,1,.19.35.67.67,0,0,1-.33.52,7.66,7.66,0,0,0-1.41,1.29,37.54,37.54,0,0,1-2.75,3Z"/><path class="cls-2" d="M100.63,83c-1.52,0-2.86.07-3.87.12-.31,0-.4-.15-.45-.47s-.16-1.7-.21-2.38a40.12,40.12,0,0,0,4.51.17H109a2.19,2.19,0,0,0,1.29-.24.69.69,0,0,1,.36-.09,1.12,1.12,0,0,1,.44.12,7.1,7.1,0,0,1,1.72,1.55.57.57,0,0,1,.16.4.78.78,0,0,1-.33.58,2.84,2.84,0,0,0-.54.92,27.72,27.72,0,0,1-4.55,7.63,26.44,26.44,0,0,1-6.67,5.59,1.13,1.13,0,0,1-.64.21.82.82,0,0,1-.58-.26,7.08,7.08,0,0,0-2.19-1.29,22.74,22.74,0,0,0,7.68-5.87,19.86,19.86,0,0,0,4-6.69Z"/><path class="cls-2" d="M128.06,80.35a3.41,3.41,0,0,0,1.62-.21.41.41,0,0,1,.26-.09.74.74,0,0,1,.4.19,8.26,8.26,0,0,1,1.52,1.64.55.55,0,0,1,.12.31.65.65,0,0,1-.3.47,4.11,4.11,0,0,0-.87,1,36.51,36.51,0,0,1-3,4.39,55.34,55.34,0,0,1,6.51,5.68.57.57,0,0,1,.18.33.54.54,0,0,1-.16.35,13.12,13.12,0,0,1-1.57,1.6.39.39,0,0,1-.28.14.46.46,0,0,1-.33-.19A43.55,43.55,0,0,0,126,90.17a33.67,33.67,0,0,1-7.89,6.2,1.53,1.53,0,0,1-.54.19.53.53,0,0,1-.4-.21,6.28,6.28,0,0,0-2-1.53,29.28,29.28,0,0,0,12.68-11.88l-6.06,0c-1.22,0-2.44.05-3.71.14-.19,0-.26-.14-.3-.4a13.32,13.32,0,0,1-.22-2.44c1.27.09,2.45.09,4,.09Z"/><path class="cls-2" d="M150.56,81.06a2.35,2.35,0,0,0,1.29-.35.67.67,0,0,1,.4-.17.77.77,0,0,1,.42.19,7.68,7.68,0,0,1,1.6,1.43.54.54,0,0,1-.07.87,3,3,0,0,0-.71.89A36.37,36.37,0,0,1,150,89.61,20.28,20.28,0,0,1,152.58,92a.47.47,0,0,1,.14.33.46.46,0,0,1-.14.3,14.57,14.57,0,0,1-1.46,1.48.49.49,0,0,1-.28.12.42.42,0,0,1-.26-.14,24.49,24.49,0,0,0-2.28-2.28,28.42,28.42,0,0,1-7.49,5.87,1.25,1.25,0,0,1-.58.21.69.69,0,0,1-.45-.21,6.84,6.84,0,0,0-2.23-1.2,28.29,28.29,0,0,0,8.64-6.36,19.41,19.41,0,0,0-3.38-2.21c.51-.56,1-1.17,1.55-1.66a.43.43,0,0,1,.3-.17.81.81,0,0,1,.24.09,25,25,0,0,1,3,1.88,22.64,22.64,0,0,0,2.74-4.65l-5.82.12a27.87,27.87,0,0,1-5,5.28.87.87,0,0,1-.47.22.54.54,0,0,1-.38-.17,10.19,10.19,0,0,0-2-1.08,26,26,0,0,0,6.64-7.37,8.66,8.66,0,0,0,1.27-2.89,14.68,14.68,0,0,1,2.75,1.15.4.4,0,0,1,.26.38.66.66,0,0,1-.28.47,1.8,1.8,0,0,0-.5.49c-.19.33-.33.56-.73,1.17Z"/><path class="cls-2" d="M168.8,92.28c0,1.62,0,3,.07,4.89,0,.3-.09.4-.35.4a23,23,0,0,1-2.35,0c-.26,0-.35-.1-.33-.38,0-1.69.09-3.22.09-4.81V86.91a40.68,40.68,0,0,1-6.45,4.5.62.62,0,0,1-.36.1.64.64,0,0,1-.49-.24,8.49,8.49,0,0,0-2-1.38,37.62,37.62,0,0,0,7.4-4.82,38.7,38.7,0,0,0,5-4.9,6.86,6.86,0,0,0,1.48-2.42,20.53,20.53,0,0,1,2.61,1.64.42.42,0,0,1,.18.35.67.67,0,0,1-.33.52,8,8,0,0,0-1.4,1.29,37.54,37.54,0,0,1-2.75,3Z"/><path class="cls-2" d="M182.61,81.79c.4.11.45.4.31.72a3.39,3.39,0,0,0-.28,1.6A17.74,17.74,0,0,1,181.37,91,12.16,12.16,0,0,1,178,95.43a1,1,0,0,1-.61.31.76.76,0,0,1-.44-.19,8.47,8.47,0,0,0-2-1,11.65,11.65,0,0,0,3.9-4.67c.66-1.6,1-2.89,1-6.65a6.24,6.24,0,0,0-.23-2A18,18,0,0,1,182.61,81.79Zm5.22,9.93a24.06,24.06,0,0,0,3.33-2.18,22.62,22.62,0,0,0,4.11-4,6.7,6.7,0,0,0,.73,2.38,1.13,1.13,0,0,1,.14.4c0,.16-.09.32-.35.58A30.51,30.51,0,0,1,192.31,92a39.23,39.23,0,0,1-4.18,2.82c-.42.28-.47.33-.68.49a.72.72,0,0,1-.47.19,1,1,0,0,1-.49-.19,6.59,6.59,0,0,1-1.41-1.43,1,1,0,0,1-.21-.5A.73.73,0,0,1,185,93c.17-.3.14-.59.14-1.78V83.88a19.14,19.14,0,0,0-.23-4.09,22.87,22.87,0,0,1,2.93.49c.31.07.43.21.43.4a1.64,1.64,0,0,1-.19.59,6.57,6.57,0,0,0-.21,2.61Z"/><path class="cls-2" d="M30.26,72.62v1.29h-6V93.12H22.88V72.62Z"/><path class="cls-2" d="M196.52,100V98.68h6V79.47h1.41V100Z"/><path class="cls-2" d="M55.15,48.12a18.74,18.74,0,0,0,9.4,6.56,5.14,5.14,0,0,0-.9,1.85c-.11.42-.18.58-.38.58a1.42,1.42,0,0,1-.53-.2,23.52,23.52,0,0,1-4.62-2.73v1.69c0,.22,0,.25-.24.25s-.66,0-2.38,0H52.44c-1.7,0-2.23,0-2.36,0s-.26,0-.26-.25V54.11A28.2,28.2,0,0,1,45.39,57a1.13,1.13,0,0,1-.5.2c-.16,0-.25-.15-.4-.53a4,4,0,0,0-1-1.52A19.09,19.09,0,0,0,52,48.43a5.56,5.56,0,0,0,.81-1.56,17.79,17.79,0,0,1,2.36.48c.26,0,.39.13.39.31a.36.36,0,0,1-.22.33ZM50.21,60c-2.13,0-2.86,0-3,0S47,60,47,59.77V58.05c0-.22,0-.24.24-.24s.86,0,3,0h7.93a2.23,2.23,0,0,0,.77-.09,1,1,0,0,1,.33-.09c.22,0,.42.06,1,.62.73.7.77.88.77,1s-.06.31-.28.48A3.51,3.51,0,0,0,60,60.85a49.49,49.49,0,0,1-4.29,6.41c-.09.11-.16.17-.27.17a4.58,4.58,0,0,1-1.1-.39c-.83-.33-1.12-.44-1.12-.6s0-.11.13-.2A26.31,26.31,0,0,0,57.61,60Zm-.13-6.05c.13,0,.66,0,2.36,0H55.5c1.5,0,2.07,0,2.29,0a20.63,20.63,0,0,1-3.92-4,21.43,21.43,0,0,1-3.83,4Z"/><path class="cls-2" d="M77.34,51.07c.24-.06.33,0,.35.22.07.49.13,1.13.15,1.59,0,.28,0,.35-.33.42a35.46,35.46,0,0,1-3.83.83c-1.49,4.89-2.62,8.26-4,11.92-.11.3-.24.28-.48.22s-1.3-.55-1.76-.82a.36.36,0,0,1-.18-.44A83.05,83.05,0,0,0,71,54.57c-1.28.14-2.82.25-3.85.25-.33,0-.42-.07-.46-.36-.09-.46-.2-1.21-.31-2a9.54,9.54,0,0,0,1.63.07,30.44,30.44,0,0,0,3.56-.22c.22-.88.4-1.85.55-2.76a14.78,14.78,0,0,0,.14-2,12.23,12.23,0,0,1,2.77.62.35.35,0,0,1,.24.35.53.53,0,0,1-.11.35,4.6,4.6,0,0,0-.46.88c-.22.79-.37,1.54-.53,2.09C75.07,51.67,76.26,51.38,77.34,51.07ZM76.48,61.6c.22,0,.31.09.33.31C77,63.51,78.06,64,80.18,64a33,33,0,0,0,3.7-.31c.17,0,.24,0,.26.2a13.43,13.43,0,0,1,.18,1.91c0,.27,0,.33-.35.35a24.28,24.28,0,0,1-3.07.25c-2.81,0-4.31-.4-5.3-1.44a4.22,4.22,0,0,1-1-3A10.7,10.7,0,0,1,76.48,61.6Zm-.24-5.84c0-.31.06-.37.39-.44a23.57,23.57,0,0,1,4.3-.5A15.09,15.09,0,0,1,83.5,55c.31,0,.38.06.38.33a17.05,17.05,0,0,1,0,1.76c0,.37-.11.46-.42.4a14.18,14.18,0,0,0-2.73-.27,24,24,0,0,0-4.42.51C76.28,57,76.24,56.2,76.24,55.76Zm5.08-6.27c.11-.09.2-.07.33,0a10.06,10.06,0,0,1,2.1,2.36.23.23,0,0,1-.07.35l-.93.68a.23.23,0,0,1-.37-.06,10.87,10.87,0,0,0-2.22-2.56Zm2-1.43c.14-.09.2-.07.33,0a9.32,9.32,0,0,1,2.1,2.27.26.26,0,0,1-.07.4l-.88.68a.23.23,0,0,1-.38-.07,10.3,10.3,0,0,0-2.2-2.53Z"/><path class="cls-2" d="M94.18,50.5a15,15,0,0,0,.22-2.44,16,16,0,0,1,2.64.72.47.47,0,0,1,.35.44.45.45,0,0,1-.15.33,2.83,2.83,0,0,0-.44.84c-.29.9-.51,1.72-.79,2.64.59-.06,1.25-.09,1.71-.09,2.07,0,3.2,1.41,3.2,4.08a18.9,18.9,0,0,1-1.19,7.07,3.16,3.16,0,0,1-3,2.07,6.92,6.92,0,0,1-2.18-.25.56.56,0,0,1-.4-.61,6.36,6.36,0,0,0-.42-2,6.68,6.68,0,0,0,2.42.48c.73,0,1.06-.26,1.41-1.16a17.08,17.08,0,0,0,.86-5.46c0-1.57-.29-2-1.25-2a14.06,14.06,0,0,0-1.85.15,61,61,0,0,1-4.43,10.35.36.36,0,0,1-.57.2,9.94,9.94,0,0,1-1.52-1,.46.46,0,0,1-.18-.33.38.38,0,0,1,.09-.24,46.51,46.51,0,0,0,4-8.63c-.86.13-1.56.26-2.16.37a6.64,6.64,0,0,0-1.21.35c-.31.11-.57.07-.7-.28A21.4,21.4,0,0,1,88,53.76c1,0,1.94-.07,2.91-.15s1.74-.2,2.6-.33C93.87,52,94,51.25,94.18,50.5Zm9,1.48c.15-.09.26,0,.42.11a14.59,14.59,0,0,1,3.65,5.35.32.32,0,0,1-.08.44,9.37,9.37,0,0,1-1.66,1.1c-.22.11-.44.09-.5-.18a15,15,0,0,0-3.61-5.7A16.58,16.58,0,0,1,103.14,52Z"/><path class="cls-2" d="M113.55,53.23c.24.11.35.24.35.42a.62.62,0,0,1-.11.33,4.43,4.43,0,0,0-.44,1.17,34.87,34.87,0,0,0-.52,4,10.73,10.73,0,0,1,7.35-3.47c3.21,0,5.13,1.87,5.13,4.71A5.4,5.4,0,0,1,122,65.32a19.07,19.07,0,0,1-5.64,1.52c-.49.06-.68,0-.88-.29a5.69,5.69,0,0,0-1.5-1.87A18.22,18.22,0,0,0,120,63.45c1.78-.77,2.59-1.92,2.59-3.33,0-1.19-.74-2.26-2.64-2.26s-4.27,1.25-6.34,3.34a6.23,6.23,0,0,0-1,1.21c-.13.22-.22.22-.5.16a15.62,15.62,0,0,1-1.5-.6c-.22-.09-.31-.13-.31-.44.13-2.55.42-5.15.68-7.11a13.4,13.4,0,0,0,.2-2A11.79,11.79,0,0,1,113.55,53.23Zm.55-5.57a.36.36,0,0,1,.42-.11,14.57,14.57,0,0,1,4.32,2.62c.11.09.15.15.15.24a.56.56,0,0,1-.11.27,15.82,15.82,0,0,1-1.12,1.54.39.39,0,0,1-.24.17c-.09,0-.16,0-.27-.15a17.46,17.46,0,0,0-4.45-2.86A12.43,12.43,0,0,1,114.1,47.66Z"/><path class="cls-2" d="M137.4,52.37c-2.69.51-5.05,1-7.4,1.46a13.54,13.54,0,0,0-1.39.35,1.38,1.38,0,0,1-.48.17.51.51,0,0,1-.42-.33,15.08,15.08,0,0,1-.82-2.37,32.21,32.21,0,0,0,3.5-.38c2.71-.4,7.56-1.12,13.24-1.87.33,0,.44.09.46.24a12.39,12.39,0,0,1,.24,1.94c0,.26-.13.33-.42.33a10.24,10.24,0,0,0-2.68.48c-3.75,1.28-5.62,3.86-5.62,6.5,0,2.84,2,4.38,5.86,4.62.35,0,.48.09.48.33a7.55,7.55,0,0,1-.24,1.9c-.06.33-.15.46-.42.46-3.87,0-8.12-2.22-8.12-6.8,0-3.13,1.56-5.24,4.23-7Zm4.36,2.38c.11-.09.19-.07.33,0a10.26,10.26,0,0,1,2.09,2.36.22.22,0,0,1-.07.35l-.92.69a.24.24,0,0,1-.38-.07,10.81,10.81,0,0,0-2.22-2.55Zm2-1.43c.13-.09.19-.07.33,0a9.47,9.47,0,0,1,2.09,2.27.26.26,0,0,1-.07.4l-.88.68c-.18.13-.29.07-.37-.07a10.56,10.56,0,0,0-2.21-2.53Z"/><path class="cls-2" d="M154.1,49.53a5.33,5.33,0,0,0-.77-1.41,16.06,16.06,0,0,1,2.67-.24c.31,0,.48.18.48.4s0,.28,0,.41a3.55,3.55,0,0,0,.09.67,11.8,11.8,0,0,0,.35,1.14,33.48,33.48,0,0,0,4.49-1.17c.2-.08.31-.06.37.11a14.58,14.58,0,0,1,.38,1.48.35.35,0,0,1-.26.4c-1.48.46-2.82.79-4.32,1.12.2.55.48,1.23.77,1.85a26.28,26.28,0,0,0,4-1.15c.22-.11.33-.06.39.14a8,8,0,0,1,.4,1.45c0,.2,0,.31-.18.39a26,26,0,0,1-3.72,1.08A16.38,16.38,0,0,0,162.1,60c.22.2.22.29.11.53a6.4,6.4,0,0,1-.91,1.37c-.13.15-.22.22-.35.22a.62.62,0,0,1-.31-.14,5.65,5.65,0,0,0-1.3-.7,10.78,10.78,0,0,0-4.14-.7c-2.06,0-3.28.63-3.28,1.67,0,1.43,1.88,1.89,5.24,1.89.82,0,1.63-.09,2.43-.13.22,0,.28.11.26.29a14.15,14.15,0,0,1-.44,2c-.07.22-.15.31-.46.33-.51,0-1,.07-1.59.07-5.06,0-7.75-1.43-7.75-4.14,0-2.36,2-3.83,5.46-3.83a10.09,10.09,0,0,1,3.79.55,27.45,27.45,0,0,1-1.83-2.6,53.58,53.58,0,0,1-6,.66c-.24,0-.33-.09-.4-.31a10.81,10.81,0,0,1-.39-1.8,39.14,39.14,0,0,0,5.92-.56c-.22-.46-.55-1.21-.84-1.82a40.58,40.58,0,0,1-5.35.53c-.26,0-.39-.09-.44-.31s-.22-1.06-.35-1.76a38.64,38.64,0,0,0,5.48-.36C154.46,50.46,154.32,50.08,154.1,49.53Z"/><path class="cls-2" d="M173.06,56.36a6.57,6.57,0,0,1,3.5-1A5.11,5.11,0,0,1,182,60.65c0,3.68-3,6-7.68,6-2.78,0-4.45-1.18-4.45-3.23a2.92,2.92,0,0,1,3.1-2.69A4,4,0,0,1,177.13,64a3.33,3.33,0,0,0,2.25-3.35,3.22,3.22,0,0,0-3.46-3.33,9,9,0,0,0-5.64,2.34c-.63.57-1.25,1.21-1.91,1.87-.16.15-.27.24-.38.24a.55.55,0,0,1-.33-.2,9.76,9.76,0,0,1-1.3-1.43c-.13-.17-.06-.33.12-.5a54.07,54.07,0,0,0,5.21-4.87c1.37-1.41,2.4-2.51,3.42-3.76-1.32.24-2.89.55-4.25.83a6.18,6.18,0,0,0-.93.27,1.77,1.77,0,0,1-.44.11c-.22,0-.37-.11-.48-.38a9.71,9.71,0,0,1-.77-2.38,10.7,10.7,0,0,0,2,.05c1.35-.13,3.29-.42,5-.75a5.84,5.84,0,0,0,1.21-.33,1.09,1.09,0,0,1,.42-.18.81.81,0,0,1,.51.18,8.36,8.36,0,0,1,1.47,1.41.76.76,0,0,1,.25.53.57.57,0,0,1-.38.52,3.88,3.88,0,0,0-1,.71c-1.6,1.56-3.08,3.1-4.75,4.71Zm0,6.27c-.64,0-1.06.38-1.06.84,0,.68.6,1.14,1.92,1.14a5.24,5.24,0,0,0,1-.08C174.67,63.32,174,62.63,173.08,62.63Z"/><path class="cls-2" d="M27.65,27.77A3.12,3.12,0,0,1,30,26.42,4.07,4.07,0,0,1,32,27a4.47,4.47,0,0,0,2.06.74,2.26,2.26,0,0,0,1.82-.94l.39.42a3,3,0,0,1-2.32,1.38,4,4,0,0,1-2-.63,4.3,4.3,0,0,0-2.06-.74,2.32,2.32,0,0,0-1.79.9Z"/><path class="cls-2" d="M43.34,24.67H39.65v2h2.79v1.05H39.65v2.44h3.77v1H38.33V23.63h5Z"/><path class="cls-2" d="M46.59,30.15h3.56v1.07H45.26V23.63h1.33Z"/><path class="cls-2" d="M59.44,31.22H58.18V27.38c0-.95,0-1.78,0-2.68h-.14c-.19.87-.37,1.66-.62,2.58l-1,3.94H54.86l-1-3.89c-.24-.88-.42-1.7-.65-2.63h-.14c0,.88,0,1.76,0,2.7v3.82H52V23.63h2.14l1,3.87c.2.79.39,1.67.55,2.5h.14c.2-.83.36-1.61.58-2.48l1-3.89h2.15Z"/><path class="cls-2" d="M64.33,24.5a6.75,6.75,0,0,0,.09-1.09,8.23,8.23,0,0,1,1.18.32.2.2,0,0,1,.15.2.24.24,0,0,1-.06.15,1.11,1.11,0,0,0-.2.37c-.13.4-.22.76-.35,1.17a7.28,7.28,0,0,1,.78,0c.91,0,1.4.64,1.4,1.89a8.35,8.35,0,0,1-.53,3.06,1.39,1.39,0,0,1-1.32.92,2.57,2.57,0,0,1-1-.15.25.25,0,0,1-.17-.27,2.75,2.75,0,0,0-.19-.91,2.56,2.56,0,0,0,1.13.26c.32,0,.47-.12.62-.52a7.47,7.47,0,0,0,.38-2.44c0-.68-.12-.9-.55-.9a6.48,6.48,0,0,0-.83.07,26.81,26.81,0,0,1-2,4.6.17.17,0,0,1-.26.09,6,6,0,0,1-.67-.43.21.21,0,0,1-.08-.15.19.19,0,0,1,0-.11,21.08,21.08,0,0,0,1.79-3.83l-1,.16a3,3,0,0,0-.54.16.21.21,0,0,1-.31-.13,8.32,8.32,0,0,1-.3-1q.64,0,1.29-.06c.41,0,.77-.09,1.15-.15C64.19,25.17,64.26,24.83,64.33,24.5Zm3.87.65c.07,0,.12,0,.19.05A6.62,6.62,0,0,1,70,27.58c0,.09,0,.14,0,.19a4.24,4.24,0,0,1-.73.49c-.1,0-.2,0-.23-.08a6.73,6.73,0,0,0-1.6-2.53C67.65,25.49,67.94,25.29,68.2,25.15Zm.26-1.37c.05,0,.09,0,.15,0a4.63,4.63,0,0,1,.93,1.05.1.1,0,0,1,0,.16l-.41.3a.1.1,0,0,1-.17,0,4.7,4.7,0,0,0-1-1.13Zm.87-.63c.06,0,.09,0,.15,0a4,4,0,0,1,.93,1,.12.12,0,0,1,0,.18l-.39.3a.1.1,0,0,1-.17,0,4.32,4.32,0,0,0-1-1.12Z"/><path class="cls-2" d="M75.81,23.47q.18.06.18.18a.21.21,0,0,1,0,.15.78.78,0,0,0-.14.35c0,.18,0,.33-.07.49a17,17,0,0,0,2.54-.41c.12,0,.15,0,.16.1a3,3,0,0,1,.1.67c0,.12-.1.17-.2.19a20.07,20.07,0,0,1-2.78.41c0,.41-.06.65-.07,1a5.78,5.78,0,0,1,1.5-.21,2.41,2.41,0,0,0,.16-.72A4.14,4.14,0,0,1,78,26c.12.08.18.16.18.22a.17.17,0,0,1-.06.12.62.62,0,0,0-.13.19,2.39,2.39,0,0,1,2,2.39c0,1.42-1.16,2.34-2.72,2.76-.21.05-.32,0-.43-.19a2.45,2.45,0,0,0-.58-.61,5.52,5.52,0,0,0,1.82-.71,1.68,1.68,0,0,0,.78-1.47,1.46,1.46,0,0,0-1.21-1.42,10.35,10.35,0,0,1-1.85,2.57,3.38,3.38,0,0,0,.18.44c.06.12,0,.17-.08.24a2.38,2.38,0,0,1-.59.34c-.09.05-.13.05-.19,0a2,2,0,0,1-.17-.39,3.07,3.07,0,0,1-1.7.71A1.07,1.07,0,0,1,72.18,30a3.83,3.83,0,0,1,2.29-3c0-.42,0-.85,0-1.22-.57,0-.84,0-1,0a3.66,3.66,0,0,1-.55,0c-.11,0-.17-.06-.18-.22s0-.47,0-.75a14.66,14.66,0,0,0,1.9,0c0-.35.08-.79.08-1.06a2.18,2.18,0,0,0,0-.44A4.7,4.7,0,0,1,75.81,23.47Zm-2.6,6.28a.34.34,0,0,0,.32.37,2.11,2.11,0,0,0,1.14-.57,12.21,12.21,0,0,1-.2-1.68A2.61,2.61,0,0,0,73.21,29.75Zm3.47-2.54a4.45,4.45,0,0,0-1.25.22,10.29,10.29,0,0,0,.12,1.47A9.06,9.06,0,0,0,76.68,27.21Z"/><path class="cls-2" d="M86.37,24.71c.09,0,.13,0,.15.08a5.16,5.16,0,0,1,.09.79c0,.09,0,.11-.12.12-.53.11-1,.18-1.62.26a26.51,26.51,0,0,1-1.9,4.2c0,.07-.07.1-.11.1a.28.28,0,0,1-.12-.05,4.49,4.49,0,0,1-.67-.5S82,29.64,82,29.6a.15.15,0,0,1,0-.11,20,20,0,0,0,1.69-3.42c-.37,0-.68,0-1,0h-.54c-.09,0-.11,0-.13-.15a5.08,5.08,0,0,1-.1-.84c.4,0,.62,0,.91,0s.67,0,1.12-.05c.12-.41.19-.74.26-1.09a3.69,3.69,0,0,0,.06-.79,8.84,8.84,0,0,1,1.14.2c.1,0,.16.08.16.15a.21.21,0,0,1-.09.18,1.1,1.1,0,0,0-.16.37c-.07.23-.14.53-.23.83A10.26,10.26,0,0,0,86.37,24.71Zm.27,2.62a4.14,4.14,0,0,0-.07-.69,5.92,5.92,0,0,1,1.06.18.15.15,0,0,1,.14.16,1.25,1.25,0,0,1-.06.21,1,1,0,0,0,0,.4,12.48,12.48,0,0,0,.11,1.66,7.7,7.7,0,0,1,1.76.91c.1.07.11.11.06.21a8.24,8.24,0,0,1-.45.79c0,.05-.06.07-.09.07s-.06,0-.1-.06a7.08,7.08,0,0,0-1.19-.82c0,1-.71,1.42-1.82,1.42s-1.8-.54-1.8-1.38S84.85,29,86,29a4.84,4.84,0,0,1,.77.06C86.67,28.39,86.65,27.79,86.64,27.33ZM86,29.8c-.49,0-.87.19-.87.57s.27.47.83.47.85-.29.85-.7a1.15,1.15,0,0,0,0-.2A2.72,2.72,0,0,0,86,29.8Zm1.82-4.71A.13.13,0,0,1,88,25a7.44,7.44,0,0,1,1.92.91c.06,0,.09.07.09.11a.24.24,0,0,1,0,.12,5.13,5.13,0,0,1-.41.72c0,.05-.06.07-.09.07a.14.14,0,0,1-.09,0,8.22,8.22,0,0,0-2-1.06C87.5,25.56,87.64,25.27,87.77,25.09Z"/><path class="cls-2" d="M96.59,24.75c.1,0,.14,0,.15.1s.06.5.07.7,0,.16-.15.19a14.76,14.76,0,0,1-1.7.37c-.66,2.17-1.16,3.67-1.79,5.29,0,.14-.11.13-.21.1s-.58-.24-.79-.36a.17.17,0,0,1-.07-.2,37.37,37.37,0,0,0,1.69-4.63c-.57.06-1.25.1-1.71.1-.15,0-.19,0-.21-.15s-.09-.54-.14-.89a4.54,4.54,0,0,0,.73,0A12.76,12.76,0,0,0,94,25.3c.1-.39.18-.82.25-1.22a6.69,6.69,0,0,0,.06-.9,5.71,5.71,0,0,1,1.23.27.17.17,0,0,1,.11.16.22.22,0,0,1,0,.15,2.1,2.1,0,0,0-.21.39c-.1.36-.16.69-.23.93A12.39,12.39,0,0,0,96.59,24.75Zm-.39,4.68c.1,0,.14,0,.15.13.08.72.56.92,1.5.92a14.38,14.38,0,0,0,1.64-.13c.08,0,.11,0,.12.08a6.11,6.11,0,0,1,.08.85c0,.12,0,.15-.16.16a11.36,11.36,0,0,1-1.33.11c-1.28,0-2-.18-2.39-.64a1.91,1.91,0,0,1-.44-1.34A6.12,6.12,0,0,1,96.2,29.43Zm-.1-2.6c0-.13,0-.16.17-.19a10,10,0,0,1,1.91-.23,6.91,6.91,0,0,1,1.14.1c.14,0,.17,0,.17.15a6.71,6.71,0,0,1,0,.78c0,.17,0,.21-.19.18a6.36,6.36,0,0,0-1.21-.12,10.45,10.45,0,0,0-2,.23C96.12,27.38,96.1,27,96.1,26.83Z"/><path class="cls-2" d="M106.43,25.2a12.59,12.59,0,0,1-1.22,4.22,1.86,1.86,0,0,1-1.67,1.12c-.86,0-1.73-.92-1.73-2.51a3.57,3.57,0,0,1,1.11-2.54,4.25,4.25,0,0,1,3.18-1.26c2.34,0,3.72,1.45,3.72,3.4s-1,3-3,3.56c-.2.06-.29,0-.42-.18a2.1,2.1,0,0,0-.68-.61c1.65-.4,3-1.08,3-2.93a2.22,2.22,0,0,0-2.19-2.27Zm-2.81.95a2.81,2.81,0,0,0-.76,1.81c0,.9.36,1.4.66,1.4s.47-.13.74-.6a11,11,0,0,0,1-3.5A3,3,0,0,0,103.62,26.15Z"/><path class="cls-2" d="M113.16,31.49c-.89,0-1.18,0-1.24,0s-.11,0-.11-.11v-.82c0-.1,0-.11.11-.11s.35,0,1.24,0h2.46V28.71h-1.08c-1,0-1.29,0-1.35,0s-.11,0-.11-.11v-.79c0-.09,0-.09.11-.09h2.43V26.08h-2.06a6.83,6.83,0,0,1-.86,1.37c-.09.12-.12.18-.18.18s-.11-.06-.22-.16a2.33,2.33,0,0,0-.61-.44,8.31,8.31,0,0,0,1.57-2.86,3.21,3.21,0,0,0,.14-.64c.32.06.67.16.95.23.1,0,.17.08.17.15s0,.1-.1.18a1.11,1.11,0,0,0-.18.37l-.24.64h1.62v-.5a9.06,9.06,0,0,0-.08-1.49c.38,0,.78,0,1.1.07.1,0,.16.06.16.1a.49.49,0,0,1,0,.2,3.82,3.82,0,0,0-.07,1.09v.53h1.69c.95,0,1.28,0,1.34,0s.11,0,.11.11V26c0,.1,0,.11-.11.11s-.39,0-1.34,0h-1.69v1.67h2.58c.09,0,.1,0,.1.09v.79c0,.1,0,.11-.1.11s-.4,0-1.35,0h-1.23v1.78H119c.88,0,1.19,0,1.24,0s.11,0,.11.11v.82c0,.1,0,.11-.11.11s-.36,0-1.24,0Z"/><path class="cls-2" d="M122.55,25.69c.07-.1.1-.1.19-.05a7.6,7.6,0,0,1,1.39,1s.06.06.06.08,0,.06-.06.11l-.44.63c0,.05,0,.07-.08.07s0,0-.09-.06a8.17,8.17,0,0,0-1.37-1.07c-.05,0-.07,0-.07-.06a.22.22,0,0,1,.06-.12Zm.09,4.79a21.89,21.89,0,0,0,1-2.25,3.63,3.63,0,0,0,.53.5c.16.12.21.17.21.25a.7.7,0,0,1-.06.23c-.3.75-.63,1.51-1,2.15a1.66,1.66,0,0,0-.17.38c0,.07-.06.12-.13.12a.43.43,0,0,1-.17-.07,4.78,4.78,0,0,1-.75-.53A4.57,4.57,0,0,0,122.64,30.48Zm.3-7.27c.08-.09.1-.09.18,0a7.33,7.33,0,0,1,1.36,1,.12.12,0,0,1,.06.09s0,.06-.06.12L124,25c0,.05-.07.07-.09.07l-.08,0a7.81,7.81,0,0,0-1.38-1.11s-.07-.05-.07-.07,0-.06.07-.12ZM126,27c-1,0-1.3,0-1.36,0s-.11,0-.11-.11v-.77c0-.09,0-.1.11-.1s.39,0,1.36,0h1.14V24.73c-.55.09-1.12.16-1.69.22-.31,0-.32,0-.4-.25a2.66,2.66,0,0,0-.27-.64,20.27,20.27,0,0,0,4.31-.7,2.68,2.68,0,0,0,.64-.27,5.43,5.43,0,0,1,.64.62.28.28,0,0,1,.09.2c0,.06,0,.12-.14.13a2,2,0,0,0-.53.11,15.32,15.32,0,0,1-1.59.4V26h1.28c1,0,1.29,0,1.35,0s.1,0,.1.1v.77c0,.1,0,.11-.1.11s-.39,0-1.35,0h-1.28v1.26h.7c.9,0,1.21,0,1.28,0s.1,0,.1.11,0,.33,0,1v.88c0,1.35,0,1.6,0,1.66s0,.1-.1.1h-.84c-.09,0-.1,0-.1-.1v-.33h-3.06v.38c0,.09,0,.1-.1.1h-.8c-.11,0-.12,0-.12-.1s0-.32,0-1.68v-.77c0-.78,0-1.05,0-1.12s0-.11.12-.11.38,0,1.27,0h.59V27Zm.18,3.66h3.06V29.09h-3.06Z"/><path class="cls-2" d="M137.45,29.79c0,.11-.06.15-.19.17a5.19,5.19,0,0,1-.69.05c-.09,0-.13-.06-.13-.15,0-.35,0-.84,0-1.2-.87.45-1.19.84-1.19,1.3s.34.68,1.36.68a16.38,16.38,0,0,0,2.44-.2c.09,0,.13,0,.14.11a5.42,5.42,0,0,1,.08.8c0,.12,0,.19-.1.19a17.06,17.06,0,0,1-2.43.13c-1.6,0-2.45-.48-2.45-1.62,0-.94.58-1.62,2.06-2.38,0-.5-.15-.7-.59-.68a2.32,2.32,0,0,0-1.35.71,12.68,12.68,0,0,0-1,1.06c0,.06-.08.09-.12.09a.2.2,0,0,1-.11-.07,5.13,5.13,0,0,1-.56-.64.16.16,0,0,1,0-.09s0-.07.07-.11a9.82,9.82,0,0,0,2.05-2.43c-.46,0-1,0-1.57,0-.09,0-.12-.05-.14-.15s-.06-.52-.09-.81c.74,0,1.5,0,2.25,0,.1-.27.19-.5.29-.85a2.26,2.26,0,0,0,.07-.59,6,6,0,0,1,1.11.27.18.18,0,0,1,.12.17.16.16,0,0,1-.07.14.63.63,0,0,0-.16.24l-.23.53a15.41,15.41,0,0,0,1.78-.31c.11,0,.14,0,.16.1a3.27,3.27,0,0,1,.1.71c0,.09,0,.13-.17.15-.73.11-1.58.22-2.29.3a9.77,9.77,0,0,1-.73,1.08v0a2,2,0,0,1,1-.3,1.08,1.08,0,0,1,1.2,1.05c.38-.17.94-.43,1.44-.68a3.06,3.06,0,0,0,.74-.53,5.78,5.78,0,0,1,.68.86.4.4,0,0,1,.08.22c0,.08,0,.12-.14.13a2.93,2.93,0,0,0-.6.15c-.64.23-1.27.44-2.1.78Z"/><path class="cls-2" d="M143.75,26.22a18.9,18.9,0,0,1-.19,3.09,7.18,7.18,0,0,1-.74,2.31c-.07.12-.11.18-.16.18s-.1-.05-.19-.15a2.81,2.81,0,0,0-.64-.55,6,6,0,0,0,.75-2.17,18.91,18.91,0,0,0,.15-2.9c0-1.19,0-1.73,0-1.79s0-.1.12-.1h3.28v-.41a3.9,3.9,0,0,0-.06-.79c.36,0,.7,0,1,.06.1,0,.16,0,.16.1a.39.39,0,0,1-.06.18,1,1,0,0,0-.07.42v.44h3.4c.1,0,.11,0,.11.1V25c0,.08,0,.09-.11.09s-.38,0-1.3,0h-5.46Zm1.53,1.65c.12,0,.14,0,.12.16a10,10,0,0,1-.72,2.7c-.05.09-.09.07-.21,0l-.66-.32c-.12-.05-.12-.1-.07-.19a7.72,7.72,0,0,0,.73-2.47c0-.1,0-.1.18-.06Zm1.55,2.47c0,.32,0,.42.14.51a1.28,1.28,0,0,0,.62.09,1.2,1.2,0,0,0,.7-.14c.18-.16.23-.5.25-1.26a2.52,2.52,0,0,0,.71.29c.26.06.26.06.23.32-.08.87-.25,1.22-.56,1.43a2.54,2.54,0,0,1-1.39.25,2.58,2.58,0,0,1-1.41-.24c-.2-.15-.28-.34-.28-.88V28.34a10,10,0,0,0-.07-1.17c.32,0,.71,0,1,.08.12,0,.2.05.2.12a.42.42,0,0,1-.08.22,2.47,2.47,0,0,0-.06.78Zm-.46-5c.09-.1.1-.11.2-.06a10.26,10.26,0,0,1,1.85,1.21c.05,0,.07.06.07.08s0,.06-.07.12l-.46.54c-.09.11-.11.11-.18.05A10.88,10.88,0,0,0,146,26c-.07,0-.09-.05,0-.15Zm3.72,5.16c-.14.07-.16.07-.19,0a11.7,11.7,0,0,0-1-2.62c0-.09,0-.11.09-.17l.59-.27c.12-.06.14-.06.19,0A11.81,11.81,0,0,1,150.83,30c0,.11,0,.12-.12.19Z"/><path class="cls-2" d="M154.37,28.75c0,.94,0,1.46,0,1.95s-.07.8-.3,1a1.85,1.85,0,0,1-1.12.21c-.31,0-.33,0-.38-.29a2.18,2.18,0,0,0-.23-.71,5.76,5.76,0,0,0,.84,0c.14,0,.21-.05.21-.27V28.69l-.39.12a1.48,1.48,0,0,0-.34.17.27.27,0,0,1-.16.06c-.06,0-.1,0-.13-.12-.06-.26-.12-.59-.17-.93a5.93,5.93,0,0,0,.91-.19l.28-.07v-1.9h-.18c-.61,0-.79,0-.84,0s-.11,0-.11-.11V25c0-.1,0-.11.11-.11s.23,0,.84,0h.18v-.52a10.86,10.86,0,0,0-.07-1.39c.35,0,.66,0,1,.07.09,0,.16.07.16.11a.53.53,0,0,1-.07.2,3,3,0,0,0-.06,1v.54c.5,0,.67,0,.74,0s.11,0,.11.11v.71c0,.1,0,.11-.11.11s-.24,0-.74,0v1.56l.77-.3a4.68,4.68,0,0,0,0,.7c0,.26,0,.27-.21.35l-.51.21Zm5.21-.36a.4.4,0,0,0,.2,0,.28.28,0,0,1,.13,0c.08,0,.17.06.34.27s.25.29.25.37a.16.16,0,0,1-.11.13.74.74,0,0,0-.25.3,7.92,7.92,0,0,1-.95,1.11,8.09,8.09,0,0,0,2.09.62,2.17,2.17,0,0,0-.3.61c-.11.29-.11.29-.4.21a7.7,7.7,0,0,1-2.11-.85,6.69,6.69,0,0,1-1.86.88.66.66,0,0,1-.22.06c-.09,0-.11-.07-.19-.23a2,2,0,0,0-.36-.52,6.13,6.13,0,0,0,1.9-.73,5.79,5.79,0,0,1-.84-.93,6.21,6.21,0,0,1-1.58,2.06c-.1.08-.16.13-.21.13s-.11-.06-.19-.16a1.75,1.75,0,0,0-.47-.47,5.66,5.66,0,0,0,2.12-3.33l-1,0c-.1,0-.11,0-.11-.12v-.63c0-.1,0-.11.11-.11s.36,0,1.2,0c0-.17,0-.35,0-.53-.8,0-1.1,0-1.15,0s-.11,0-.11-.12v-.55c0-.1,0-.11.11-.11s.37,0,1.27,0H159a7.57,7.57,0,0,0,.53-1.07,3,3,0,0,0,.15-.53,5.71,5.71,0,0,1,.87.24.16.16,0,0,1,.12.14.2.2,0,0,1-.08.14.51.51,0,0,0-.16.19c-.16.3-.27.56-.47.89.64,0,.89,0,.95,0s.11,0,.11.11v.55c0,.11,0,.12-.11.12s-.38,0-1.28,0h-1.9c0,.19,0,.36-.07.53h2.11c.92,0,1.25,0,1.31,0s.09,0,.09.11v.63c0,.11,0,.12-.09.12s-.39,0-1.31,0h-2.26a4.72,4.72,0,0,1-.13.54Zm1.16-4.87c.06.06.11.11.11.17s-.08.11-.21.11a3.09,3.09,0,0,0-.43.06,35.78,35.78,0,0,1-4.14.5c-.32,0-.35,0-.44-.26a2.11,2.11,0,0,0-.29-.54,21.68,21.68,0,0,0,4.2-.39,2.5,2.5,0,0,0,.55-.19A5.63,5.63,0,0,1,160.74,23.52Zm-4.28.9c.13-.05.15,0,.2,0a3.9,3.9,0,0,1,.45.82c0,.1,0,.12-.09.17l-.54.22c-.13,0-.16,0-.2-.06a3.27,3.27,0,0,0-.41-.84c-.07-.09-.06-.1.07-.15Zm1,4.66a3.89,3.89,0,0,0,1,1,4,4,0,0,0,.82-1Zm.71-3.48c-.14.06-.16.06-.2-.06a4.89,4.89,0,0,0-.42-.93c0-.07,0-.1.14-.15l.44-.17c.14-.06.17,0,.22,0a5,5,0,0,1,.45.89c0,.09,0,.12-.1.17Z"/><path class="cls-2" d="M164.85,23.66c.17,0,.24.08.24.18a.86.86,0,0,1-.1.32,5.93,5.93,0,0,0-.14,1.2c-.09,1.5-.14,2.5-.14,3.78,0,1,.11,1.22.9,1.22a5.15,5.15,0,0,0,3.42-1.8,3.86,3.86,0,0,0,.22.93.57.57,0,0,1,.08.23c0,.09,0,.17-.19.3a5.6,5.6,0,0,1-3.71,1.47c-1.25,0-1.84-.5-1.84-2,0-1.65.09-3.06.14-4.23a6.36,6.36,0,0,0-.1-1.79A9.76,9.76,0,0,1,164.85,23.66Z"/><path class="cls-2" d="M174.06,27.88a16.86,16.86,0,0,1-2,0c-.11,0-.15,0-.16-.16a5.83,5.83,0,0,1-.06-.84,13.45,13.45,0,0,0,2.2.08c0-.37,0-.75,0-1.12a15.79,15.79,0,0,1-2.34-.05.14.14,0,0,1-.16-.14c0-.24,0-.48-.07-.88a21.83,21.83,0,0,0,2.56.1c0-.36,0-.62,0-.95a2.72,2.72,0,0,0-.12-.65,5.77,5.77,0,0,1,1.24.17.2.2,0,0,1,.1.29,1.5,1.5,0,0,0-.14.47c0,.2,0,.34,0,.63a18.3,18.3,0,0,0,2.14-.29c.12,0,.16,0,.17.11a5.21,5.21,0,0,1,.05.72c0,.13,0,.15-.11.16a22.53,22.53,0,0,1-2.26.25c0,.39,0,.75,0,1.1a17.06,17.06,0,0,0,1.92-.25c.11,0,.14,0,.15.08s0,.51,0,.8c0,.1,0,.13-.15.14a17.27,17.27,0,0,1-1.91.23c0,.45,0,.93.07,1.38a9.14,9.14,0,0,1,2.59,1.18c.1.09.1.12.07.24a3,3,0,0,1-.43.72.15.15,0,0,1-.13.08.15.15,0,0,1-.11-.05,7.71,7.71,0,0,0-1.94-1.11c0,1-.65,1.48-2,1.48s-2-.55-2-1.36.78-1.39,2-1.39a9.34,9.34,0,0,1,.94,0C174.09,28.61,174.07,28.21,174.06,27.88Zm-.84,2c-.71,0-1.06.2-1.06.52s.3.44,1,.44a1.2,1.2,0,0,0,.89-.3.92.92,0,0,0,.11-.55A4.81,4.81,0,0,0,173.22,29.86Z"/><path class="cls-2" d="M183.92,24a3.49,3.49,0,0,0-.11-.71,8.43,8.43,0,0,1,1.14.13c.17,0,.27.1.27.19a.46.46,0,0,1-.08.22,1,1,0,0,0-.08.29c0,.12,0,.25,0,.62,1.05,0,2.06,0,3,0,.12,0,.14,0,.15.15s0,.5,0,.74-.05.14-.17.13c-1,0-2,0-3,0,0,.6,0,1.22,0,1.82a3,3,0,0,1,.14,1,3.66,3.66,0,0,1-1.74,3.16.83.83,0,0,1-.38.18.52.52,0,0,1-.29-.14,2,2,0,0,0-.75-.39,3.27,3.27,0,0,0,2-2.16,1.13,1.13,0,0,1-.92.4,1.36,1.36,0,0,1-1.36-1.5,1.43,1.43,0,0,1,1.48-1.47,1.18,1.18,0,0,1,.74.2c0-.34,0-.68,0-1-1.23.07-2.61.19-3.38.29-.22,0-.37.12-.46.12s-.14,0-.17-.14a5.57,5.57,0,0,1-.24-1,7.25,7.25,0,0,0,1.19,0c.6,0,1.86-.13,3-.2C183.93,24.49,183.93,24.24,183.92,24Zm-1.25,4a.61.61,0,0,0,.63.67.63.63,0,0,0,.66-.68.59.59,0,0,0-.64-.63A.63.63,0,0,0,182.67,27.94Z"/><path class="cls-2" d="M190,27.77a3.11,3.11,0,0,1,2.31-1.35,4,4,0,0,1,2,.62,4.5,4.5,0,0,0,2.07.74,2.28,2.28,0,0,0,1.82-.94l.39.42a3,3,0,0,1-2.33,1.38,3.93,3.93,0,0,1-2-.63,4.29,4.29,0,0,0-2.07-.74,2.35,2.35,0,0,0-1.79.9Z"/><path class="cls-2" d="M172.46,1.47H44.22a.74.74,0,0,1,0-1.47H172.46a.73.73,0,0,1,.73.73A.73.73,0,0,1,172.46,1.47Z"/><path class="cls-2" d="M222.71,42.39a.73.73,0,0,1-.55-.25L187.92,3.59a.74.74,0,0,1,.06-1,.73.73,0,0,1,1,.06l34.24,38.56a.72.72,0,0,1-.06,1A.7.7,0,0,1,222.71,42.39Z"/><path class="cls-2" d="M226,98a.74.74,0,0,1-.74-.73V49.12a.74.74,0,0,1,1.47,0V97.29A.73.73,0,0,1,226,98Z"/><path class="cls-2" d="M187.07,147.82H44.22a.74.74,0,0,1,0-1.47h142.2l32.79-36.62a.73.73,0,1,1,1.09,1Z"/><path class="cls-2" d="M35.78,142a.72.72,0,0,1-.54-.25L2.91,105.82a.73.73,0,1,1,1.09-1l32.33,35.92a.74.74,0,0,1-.06,1A.75.75,0,0,1,35.78,142Z"/><path class="cls-2" d="M.73,97.38A.73.73,0,0,1,0,96.65v-47a.74.74,0,0,1,1.47,0v47A.74.74,0,0,1,.73,97.38Z"/><path class="cls-2" d="M2.7,44.27a.73.73,0,0,1-.55-1.22L37.25,3.31a.73.73,0,0,1,1-.06.74.74,0,0,1,.07,1L3.25,44A.73.73,0,0,1,2.7,44.27Z"/><path class="cls-2" d="M57.43,129.07v-14h1.46L63,125.69V115.07h1.34v14H63l-4.18-10.82v10.82Z"/><path class="cls-2" d="M67.51,129.07v-14h5.66v1.3H69v5h3.6v1.28H69v5.16h4.28v1.3Z"/><path class="cls-2" d="M85.36,129.07H84L81.7,117.85l-2.26,11.22H78l-2.3-14h1.44l1.68,11.28L81,115.07H82.4l2.22,11.28,1.68-11.28h1.36Z"/><path class="cls-2" d="M99.56,129.07H94.14v-14h1.44v12.68h4Z"/><path class="cls-2" d="M102.3,129.07v-14h1.44v14Z"/><path class="cls-2" d="M106.92,115.07h5.58v1.3h-4.14v5.06h3.52v1.28h-3.52v6.36h-1.44Z"/><path class="cls-2" d="M115.24,129.07v-14h5.66v1.3h-4.22v5h3.6v1.28h-3.6v5.16H121v1.3Z"/><path class="cls-2" d="M132.5,120v-1.84c0-1.34-.54-1.92-1.8-1.92s-1.8.58-1.8,1.92v1c0,.94.32,1.22,1.26,1.74l2,1.1a2.85,2.85,0,0,1,1.8,2.52v1.86c0,2-1.1,2.92-3.22,2.92h0c-2.12,0-3.22-.86-3.22-2.92V124h1.42v2c0,1.32.54,2,1.82,2s1.82-.64,1.82-2v-1.12c0-.94-.36-1.3-1.32-1.84l-2-1.08c-1.22-.68-1.78-1.26-1.78-2.48v-1.68c0-2,1.28-2.88,3.2-2.88h0c1.92,0,3.2.92,3.2,2.88V120Z"/><path class="cls-2" d="M142.94,116.37h-2.57v12.7h-1.44v-12.7h-2.54v-1.3h6.55Z"/><path class="cls-2" d="M149.65,129.07h-1.44v-5.32l-3-8.68h1.5l2.24,7,2.26-7h1.48l-3,8.68Z"/><path class="cls-2" d="M160.82,129.07h-5.43v-14h1.44v12.68h4Z"/><path class="cls-2" d="M163.52,129.07v-14h5.66v1.3H165v5h3.6v1.28H165v5.16h4.28v1.3Z"/></g></g></svg>